<?xml version="1.0" encoding="iso-8859-1"?>
<!-- Uploaded to: SVG Repo, www.svgrepo.com, Generator: SVG Repo Mixer Tools -->
<svg height="800px" width="800px" version="1.1" id="Layer_1" xmlns="http://www.w3.org/2000/svg" xmlns:xlink="http://www.w3.org/1999/xlink" 
	 viewBox="0 0 512 512" xml:space="preserve">
<circle style="fill:#FD8469;" cx="256" cy="256" r="256"/>
<path style="fill:#FC6F58;" d="M507.087,306.086L359.946,158.946l-191.29,93.032l-8.809,108.809l146.291,146.291
	C407.318,486.984,487.015,407.273,507.087,306.086z"/>
<circle style="fill:#E6F3FF;" cx="256" cy="256" r="142.222"/>
<g>
	<path style="fill:#CFDBE6;" d="M256,113.778c78.546,0,142.222,63.676,142.222,142.222S334.546,398.222,256,398.222V113.778z"/>
	<circle style="fill:#CFDBE6;" cx="256" cy="256" r="37.926"/>
</g>
<path style="fill:#B8C9D9;" d="M256,218.074c20.945,0,37.926,16.98,37.926,37.926s-16.98,37.926-37.926,37.926V218.074z"/>
<circle style="fill:#324A5E;" cx="256" cy="256" r="24.135"/>
<path style="fill:#FC6F58;" d="M141.472,155.453c0-12.734,10.323-23.057,23.057-23.057c12.734,0,23.057,10.323,23.057,23.057
	c0-12.734,10.323-23.057,23.057-23.057c12.734,0,23.057,10.323,23.057,23.057c0,22.049-46.114,48.421-46.114,48.421
	S141.472,178.743,141.472,155.453z"/>
<path style="fill:#F1543F;" d="M187.587,155.453c0-12.734,10.323-23.057,23.057-23.057c12.734,0,23.057,10.323,23.057,23.057
	c0,22.049-46.114,48.421-46.114,48.421V155.453z"/>
<path style="fill:#FC6F58;" d="M324.525,241.121c0-7.616,6.175-13.791,13.791-13.791s13.791,6.175,13.791,13.791
	c0-7.616,6.175-13.791,13.791-13.791s13.791,6.175,13.791,13.791c0,13.188-27.582,28.962-27.582,28.962
	S324.525,255.052,324.525,241.121z"/>
<path style="fill:#F1543F;" d="M352.108,241.121c0-7.616,6.175-13.791,13.791-13.791s13.791,6.175,13.791,13.791
	c0,13.188-27.582,28.962-27.582,28.962V241.121z"/>
<path style="fill:#FC6F58;" d="M172.391,326.68c0-7.616,6.175-13.791,13.791-13.791c7.616,0,13.791,6.175,13.791,13.791
	c0-7.616,6.175-13.791,13.791-13.791c7.616,0,13.791,6.175,13.791,13.791c0,13.188-27.583,28.962-27.583,28.962
	S172.391,340.611,172.391,326.68z"/>
<path style="fill:#F1543F;" d="M199.973,326.68c0-7.616,6.175-13.791,13.791-13.791c7.616,0,13.791,6.175,13.791,13.791
	c0,13.188-27.583,28.962-27.583,28.962V326.68z"/>
</svg>